<svg width="136" height="136" viewBox="0 0 136 136" fill="none" xmlns="http://www.w3.org/2000/svg">
<g id="Arrow Line Head Swirl Medium" clip-path="url(#clip0_72_27)">
<g id="Group">
<path id="Vector" fill-rule="evenodd" clip-rule="evenodd" d="M115.478 90.6498C107.998 92.1399 92.6776 96.8397 90.6425 98.2627C89.4978 99.0631 88.1564 99.2436 87.7339 98.6395C86.8001 97.304 90.5144 93.9493 94.8573 92.2382C97.7377 91.0763 97.7599 91.108 93.4498 90.9023C83.4596 90.36 65.2268 84.5976 62.6635 81.1349C61.8979 80.1078 43.9807 85.1558 22.0112 64.2992C15.3584 57.9672 10.9614 47.5485 14.1949 45.8083C14.7482 45.5161 15.3869 45.685 15.7522 46.1397L19.1223 50.553C37.1903 74.0904 56.9924 75.3942 57.0464 75.4038C56.9417 75.0509 50.9851 68.5635 57.3089 59.5966C60.0953 55.6597 64.5436 52.8807 69.3972 53.3218C84.9495 54.7093 86.9279 71.0804 72.3792 77.5605C70.4175 78.4114 70.2523 78.2428 74.7649 80.2953C82.5285 83.8148 94.8699 86.0271 106.364 85.944C110.636 85.8921 110.649 85.978 105.431 83.1877C93.1234 76.6907 88.6954 70.6967 96.8862 71.6449C98.7424 71.862 99.4383 72.1801 107.713 76.9046C110.875 78.7181 115.883 81.2764 118.829 82.5779C124.352 85.06 124.835 85.4797 123.823 86.9446C122.529 88.7494 120.589 89.632 115.478 90.6498ZM76.4071 69.9146C79.458 64.7986 73.8856 59.1314 65.2941 58.5581C60.9713 58.2666 58.7283 62.439 60.4675 67.567C61.5149 70.6222 65.578 75.2142 67.0911 75.0084C70.6673 74.6383 75.0486 72.2375 76.4071 69.9146Z" fill="#9333EA"/>
</g>
</g>
<defs>
<clipPath id="clip0_72_27">
<rect width="97" height="97" fill="white" transform="matrix(0.819525 -0.573044 -0.573044 -0.819525 55.5852 135.079)"/>
</clipPath>
</defs>
</svg>
