<svg width="37" height="36" viewBox="0 0 37 36" fill="none" xmlns="http://www.w3.org/2000/svg">
<g id="clarity:block-quote-line">
<path id="Vector" d="M12.1159 16.5501C11.3762 16.5526 10.6495 16.7454 10.0059 17.1101C10.9121 14.7646 12.415 12.6964 14.3659 11.1101C14.4775 11.0181 14.57 10.9051 14.6379 10.7775C14.7059 10.6498 14.748 10.5101 14.7619 10.3661C14.7759 10.2222 14.7613 10.0769 14.7191 9.93864C14.6769 9.80033 14.6078 9.6717 14.5159 9.56007C14.424 9.44845 14.311 9.35602 14.1833 9.28807C14.0557 9.22013 13.9159 9.17798 13.772 9.16406C13.628 9.15013 13.4828 9.16468 13.3445 9.2069C13.2062 9.24911 13.0775 9.31815 12.9659 9.41007C8.96591 12.6601 7.18591 17.1601 7.18591 19.9501C7.19281 20.9366 7.48678 21.8997 8.03195 22.7219C8.57712 23.5441 9.34989 24.1898 10.2559 24.5801C10.8423 24.8641 11.4844 25.0144 12.1359 25.0201C12.7094 25.0479 13.2825 24.9591 13.8206 24.7588C14.3587 24.5586 14.8505 24.2511 15.2662 23.8551C15.6819 23.4591 16.0129 22.9828 16.239 22.4551C16.4652 21.9274 16.5818 21.3592 16.5818 20.7851C16.5818 20.2109 16.4652 19.6428 16.239 19.1151C16.0129 18.5873 15.6819 18.111 15.2662 17.715C14.8505 17.319 14.3587 17.0116 13.8206 16.8113C13.2825 16.6111 12.7094 16.5222 12.1359 16.5501H12.1159Z" fill="#9333EA"/>
<path id="Vector_2" d="M23.2559 16.55C22.5161 16.5516 21.7892 16.7445 21.1459 17.11C22.0517 14.767 23.5507 12.6995 25.4959 11.11C25.6177 11.0223 25.7202 10.9105 25.7971 10.7816C25.8741 10.6528 25.9239 10.5095 25.9434 10.3607C25.9629 10.2119 25.9518 10.0607 25.9106 9.91633C25.8695 9.77198 25.7993 9.63758 25.7043 9.52139C25.6093 9.40519 25.4915 9.30967 25.3582 9.2407C25.2249 9.17173 25.0789 9.13077 24.9292 9.12034C24.7794 9.1099 24.6292 9.13022 24.4876 9.18004C24.346 9.22986 24.2161 9.30812 24.1059 9.41002C20.1059 12.66 18.3259 17.16 18.3259 19.95C18.3307 20.9253 18.6161 21.8787 19.1481 22.6962C19.68 23.5136 20.4361 24.1607 21.3259 24.56C21.9271 24.8524 22.5874 25.0029 23.2559 25C23.8294 25.0279 24.4025 24.939 24.9406 24.7388C25.4787 24.5385 25.9705 24.2311 26.3862 23.8351C26.8019 23.4391 27.1329 22.9628 27.359 22.435C27.5852 21.9073 27.7018 21.3392 27.7018 20.765C27.7018 20.1909 27.5852 19.6227 27.359 19.095C27.1329 18.5673 26.8019 18.091 26.3862 17.695C25.9705 17.299 25.4787 16.9915 24.9406 16.7913C24.4025 16.591 23.8294 16.5021 23.2559 16.53V16.55Z" fill="#9333EA"/>
</g>
</svg>
