<svg width="105" height="64" viewBox="0 0 105 64" fill="none" xmlns="http://www.w3.org/2000/svg">
<g id="Titik-titik">
<rect id="Rectangle 3 Copy 59" y="6.04395" width="2.83784" height="2.80881" rx="1.34409" fill="white"/>
<rect id="Rectangle 3 Copy 58" x="11.3516" y="6.04395" width="2.83784" height="2.80881" rx="1.34409" fill="white"/>
<rect id="Rectangle 3 Copy 57" x="22.7026" y="6.04395" width="2.83784" height="2.80881" rx="1.34409" fill="white"/>
<rect id="Rectangle 3 Copy 56" x="34.0542" y="6.04395" width="2.83784" height="2.80881" rx="1.34409" fill="white"/>
<rect id="Rectangle 3 Copy 55" x="45.4053" y="6.04395" width="2.83784" height="2.80881" rx="1.34409" fill="white"/>
<rect id="Rectangle 3 Copy 54" x="56.7568" y="6.04395" width="2.83784" height="2.80881" rx="1.34409" fill="white"/>
<rect id="Rectangle 3 Copy 53" x="68.1084" y="6.04395" width="2.83784" height="2.80881" rx="1.34409" fill="white"/>
<rect id="Rectangle 3 Copy 52" x="79.4595" y="6.04395" width="2.83784" height="2.80881" rx="1.34409" fill="white"/>
<rect id="Rectangle 3 Copy 51" x="90.811" y="6.04395" width="2.83784" height="2.80881" rx="1.34409" fill="white"/>
<rect id="Rectangle 3 Copy 50" x="102.162" y="6.04395" width="2.83784" height="2.80881" rx="1.34409" fill="white"/>
<rect id="Rectangle 3 Copy 69" y="17.2791" width="2.83784" height="2.80881" rx="1.34409" fill="white"/>
<rect id="Rectangle 3 Copy 68" x="11.3516" y="17.2791" width="2.83784" height="2.80881" rx="1.34409" fill="white"/>
<rect id="Rectangle 3 Copy 67" x="22.7026" y="17.2791" width="2.83784" height="2.80881" rx="1.34409" fill="white"/>
<rect id="Rectangle 3 Copy 66" x="34.0542" y="17.2791" width="2.83784" height="2.80881" rx="1.34409" fill="white"/>
<rect id="Rectangle 3 Copy 65" x="45.4053" y="17.2791" width="2.83784" height="2.80881" rx="1.34409" fill="white"/>
<rect id="Rectangle 3 Copy 64" x="56.7568" y="17.2791" width="2.83784" height="2.80881" rx="1.34409" fill="white"/>
<rect id="Rectangle 3 Copy 63" x="68.1084" y="17.2791" width="2.83784" height="2.80881" rx="1.34409" fill="white"/>
<rect id="Rectangle 3 Copy 62" x="79.4595" y="17.2791" width="2.83784" height="2.80881" rx="1.34409" fill="white"/>
<rect id="Rectangle 3 Copy 61" x="90.811" y="17.2791" width="2.83784" height="2.80881" rx="1.34409" fill="white"/>
<rect id="Rectangle 3 Copy 60" x="102.162" y="17.2791" width="2.83784" height="2.80881" rx="1.34409" fill="white"/>
<rect id="Rectangle 3 Copy 79" y="28.5144" width="2.83784" height="2.80881" rx="1.34409" fill="white"/>
<rect id="Rectangle 3 Copy 80" y="39.3503" width="2.83784" height="2.80881" rx="1.34409" fill="white"/>
<rect id="Rectangle 3 Copy 90" y="50.1863" width="2.83784" height="2.80881" rx="1.34409" fill="white"/>
<rect id="Rectangle 3 Copy 100" y="61.022" width="2.83784" height="2.80881" rx="1.34409" fill="white"/>
<rect id="Rectangle 3 Copy 78" x="11.3516" y="28.5144" width="2.83784" height="2.80881" rx="1.34409" fill="white"/>
<rect id="Rectangle 3 Copy 81" x="11.3516" y="39.3503" width="2.83784" height="2.80881" rx="1.34409" fill="white"/>
<rect id="Rectangle 3 Copy 91" x="11.3516" y="50.1863" width="2.83784" height="2.80881" rx="1.34409" fill="white"/>
<rect id="Rectangle 3 Copy 101" x="11.3516" y="61.022" width="2.83784" height="2.80881" rx="1.34409" fill="white"/>
<rect id="Rectangle 3 Copy 77" x="22.7026" y="28.5144" width="2.83784" height="2.80881" rx="1.34409" fill="white"/>
<rect id="Rectangle 3 Copy 82" x="22.7026" y="39.3503" width="2.83784" height="2.80881" rx="1.34409" fill="white"/>
<rect id="Rectangle 3 Copy 92" x="22.7026" y="50.1863" width="2.83784" height="2.80881" rx="1.34409" fill="white"/>
<rect id="Rectangle 3 Copy 102" x="22.7026" y="61.022" width="2.83784" height="2.80881" rx="1.34409" fill="white"/>
<rect id="Rectangle 3 Copy 76" x="34.0542" y="28.5144" width="2.83784" height="2.80881" rx="1.34409" fill="white"/>
<rect id="Rectangle 3 Copy 83" x="34.0542" y="39.3503" width="2.83784" height="2.80881" rx="1.34409" fill="white"/>
<rect id="Rectangle 3 Copy 93" x="34.0542" y="50.1863" width="2.83784" height="2.80881" rx="1.34409" fill="white"/>
<rect id="Rectangle 3 Copy 103" x="34.0542" y="61.022" width="2.83784" height="2.80881" rx="1.34409" fill="white"/>
<rect id="Rectangle 3 Copy 75" x="45.4053" y="28.5144" width="2.83784" height="2.80881" rx="1.34409" fill="white"/>
<rect id="Rectangle 3 Copy 84" x="45.4053" y="39.3503" width="2.83784" height="2.80881" rx="1.34409" fill="white"/>
<rect id="Rectangle 3 Copy 94" x="45.4053" y="50.1863" width="2.83784" height="2.80881" rx="1.34409" fill="white"/>
<rect id="Rectangle 3 Copy 104" x="45.4053" y="61.022" width="2.83784" height="2.80881" rx="1.34409" fill="white"/>
<rect id="Rectangle 3 Copy 74" x="56.7568" y="28.5144" width="2.83784" height="2.80881" rx="1.34409" fill="white"/>
<rect id="Rectangle 3 Copy 85" x="56.7568" y="39.3503" width="2.83784" height="2.80881" rx="1.34409" fill="white"/>
<rect id="Rectangle 3 Copy 95" x="56.7568" y="50.1863" width="2.83784" height="2.80881" rx="1.34409" fill="white"/>
<rect id="Rectangle 3 Copy 105" x="56.7568" y="61.022" width="2.83784" height="2.80881" rx="1.34409" fill="white"/>
<rect id="Rectangle 3 Copy 73" x="68.1084" y="28.5144" width="2.83784" height="2.80881" rx="1.34409" fill="white"/>
<rect id="Rectangle 3 Copy 86" x="68.1084" y="39.3503" width="2.83784" height="2.80881" rx="1.34409" fill="white"/>
<rect id="Rectangle 3 Copy 96" x="68.1084" y="50.1863" width="2.83784" height="2.80881" rx="1.34409" fill="white"/>
<rect id="Rectangle 3 Copy 106" x="68.1084" y="61.022" width="2.83784" height="2.80881" rx="1.34409" fill="white"/>
<rect id="Rectangle 3 Copy 72" x="79.4595" y="28.5144" width="2.83784" height="2.80881" rx="1.34409" fill="white"/>
<rect id="Rectangle 3 Copy 87" x="79.4595" y="39.3503" width="2.83784" height="2.80881" rx="1.34409" fill="white"/>
<rect id="Rectangle 3 Copy 97" x="79.4595" y="50.1863" width="2.83784" height="2.80881" rx="1.34409" fill="white"/>
<rect id="Rectangle 3 Copy 107" x="79.4595" y="61.022" width="2.83784" height="2.80881" rx="1.34409" fill="white"/>
<rect id="Rectangle 3 Copy 71" x="90.811" y="28.5144" width="2.83784" height="2.80881" rx="1.34409" fill="white"/>
<rect id="Rectangle 3 Copy 88" x="90.811" y="39.3503" width="2.83784" height="2.80881" rx="1.34409" fill="white"/>
<rect id="Rectangle 3 Copy 98" x="90.811" y="50.1863" width="2.83784" height="2.80881" rx="1.34409" fill="white"/>
<rect id="Rectangle 3 Copy 108" x="90.811" y="61.022" width="2.83784" height="2.80881" rx="1.34409" fill="white"/>
<rect id="Rectangle 3 Copy 70" x="102.162" y="28.5144" width="2.83784" height="2.80881" rx="1.34409" fill="white"/>
<rect id="Rectangle 3 Copy 89" x="102.162" y="39.3503" width="2.83784" height="2.80881" rx="1.34409" fill="white"/>
<rect id="Rectangle 3 Copy 99" x="102.162" y="50.1863" width="2.83784" height="2.80881" rx="1.34409" fill="white"/>
<rect id="Rectangle 3 Copy 109" x="102.162" y="61.022" width="2.83784" height="2.80881" rx="1.34409" fill="white"/>
</g>
</svg>
