<svg width="123" height="240" viewBox="0 0 123 240" fill="none" xmlns="http://www.w3.org/2000/svg">
<path id="Vector" d="M129.252 0.607537C146.339 -0.708652 163.244 12.911 165.578 29.8956C166.792 38.6855 164.548 47.7271 166.208 56.4483C168.543 68.6831 178.122 78.2054 188.137 85.6219C198.151 93.0383 209.253 99.356 217.139 109.016C225.024 118.664 228.916 133.05 222.323 143.626C215.937 153.858 201.997 157.417 195.736 167.718C185.55 184.462 201.322 207.661 192.692 225.252C188.331 234.134 178.214 239.353 168.314 239.444C158.414 239.536 148.869 235.129 141.2 228.869C132.147 221.487 124.891 211.301 113.938 207.249C96.1066 200.657 77.371 212.777 58.7383 216.497C41.1815 220.01 21.4272 215.066 9.73031 201.515C-1.9666 187.953 -3.27135 165.589 8.89481 152.45C15.4643 145.354 25.4673 140.787 28.5919 131.643C32.4718 120.289 23.7849 108.981 17.2955 98.8868C11.9163 90.5204 7.67018 81.0553 7.42984 71.1095C7.18949 61.1637 11.5844 50.6914 20.1683 45.6555C41.1128 33.3749 69.3479 56.9976 89.1022 39.8643C104.359 26.6337 103.832 2.58754 129.275 0.630427L129.252 0.607537Z" stroke="#9333EA" stroke-width="0.640927" stroke-linecap="round" stroke-linejoin="round"/>
</svg>
